<svg width="122" height="56" viewBox="0 0 122 56" fill="none" xmlns="http://www.w3.org/2000/svg">
<path d="M77.1148 28.8378C77.1148 30.0666 77.4792 31.2679 78.162 32.2897C78.8447 33.3115 79.8151 34.1078 80.9504 34.5781C82.0857 35.0484 83.335 35.1714 84.5403 34.9317C85.7455 34.6919 86.8526 34.1002 87.7216 33.2312C88.5905 32.3623 89.1823 31.2552 89.422 30.0499C89.6617 28.8447 89.5387 27.5954 89.0684 26.46C88.5982 25.3247 87.8018 24.3543 86.78 23.6716C85.7583 22.9889 84.557 22.6245 83.3281 22.6245C81.6802 22.6245 80.0999 23.2791 78.9347 24.4443C77.7694 25.6095 77.1148 27.1899 77.1148 28.8378ZM65.4572 28.8378C65.4572 25.3032 66.5053 21.8481 68.469 18.9092C70.4326 15.9703 73.2237 13.6798 76.4892 12.3272C79.7547 10.9745 83.3479 10.6206 86.8146 11.3102C90.2812 11.9997 93.4655 13.7018 95.9648 16.2011C98.4641 18.7004 100.166 21.8847 100.856 25.3513C101.545 28.8179 101.191 32.4112 99.8387 35.6767C98.4861 38.9422 96.1955 41.7332 93.2567 43.6969C90.3178 45.6606 86.8626 46.7087 83.3281 46.7087C80.9812 46.709 78.6572 46.2469 76.4889 45.3488C74.3206 44.4508 72.3505 43.1344 70.691 41.4749C69.0314 39.8154 67.7151 37.8453 66.8171 35.6769C65.919 33.5086 65.4569 31.1847 65.4572 28.8378Z" fill="#00ABC8"/>
<path d="M120.5 45.9325H109.278V23.613H102.644V16.0284C106.673 15.8308 109.753 14.342 110.406 11.5586H120.5V45.939" fill="#00ABC8"/>
<path d="M60.9628 45.9325H49.7426V23.613H43.1082V16.0284C47.1372 15.8308 50.216 14.342 50.8707 11.5586H60.9628V45.939" fill="#00ABC8"/>
<path fill-rule="evenodd" clip-rule="evenodd" d="M24.9989 45.9623L22.4751 38.8087H12.3095L9.78565 45.9623H0.5L13.6465 11.6211H21.4172L34.4641 45.9558H24.9956M17.9498 26.1503L17.3931 24.5733L16.8348 26.1503L15.008 31.4968H19.9055L17.9498 26.1503Z" fill="#00ABC8"/>
<path d="M33.4291 32.5883C33.4291 33.8172 33.7935 35.0184 34.4762 36.0402C35.1589 37.062 36.1293 37.8584 37.2646 38.3286C38.4 38.7989 39.6493 38.9219 40.8545 38.6822C42.0598 38.4425 43.1669 37.8507 44.0358 36.9818C44.9048 36.1128 45.4965 35.0057 45.7363 33.8004C45.976 32.5952 45.853 31.3459 45.3827 30.2106C44.9124 29.0752 44.116 28.1049 43.0943 27.4221C42.0725 26.7394 40.8712 26.375 39.6424 26.375C37.9945 26.375 36.4141 27.0296 35.2489 28.1948C34.0837 29.36 33.4291 30.9404 33.4291 32.5883Z" fill="#00ABC8"/>
</svg>
