<svg width="101" height="56" viewBox="0 0 101 56" fill="none" xmlns="http://www.w3.org/2000/svg">
<path d="M14.3617 4.72461H41.2758L46.5854 12.5945L51.9714 4.72461H86.6383C94.2947 4.72461 100.5 10.93 100.5 18.5863V38.3479C100.5 46.0043 94.2947 52.2097 86.6383 52.2097H14.3617C6.70535 52.2097 0.5 46.0043 0.5 38.3483V18.5863C0.5 10.93 6.70535 4.72461 14.3617 4.72461Z" fill="#EB1928"/>
<path d="M90.3797 42.9198L88.0893 14.3053H79.5419L74.2372 27.7445L68.8874 14.3053H60.5945L57.4996 42.9198H65.8992L67.3244 26.6758L74.1866 42.8689L81.5681 26.6248L82.1688 42.9198H90.3797ZM50.6681 43.0218V14.4073H41.9626V43.0218H50.6681ZM31.3849 28.9613C33.4462 27.2203 34.8056 24.9347 34.6837 22.3843C34.5205 18.8565 32.6217 16.1129 29.2977 14.8554C27.4651 14.1376 24.3089 13.8066 20.9184 13.8425C16.999 13.8779 16.4641 13.8118 11.6333 14.4631V42.9505C14.4024 43.5563 16.7289 43.5611 21.5091 43.6734C30.382 43.8766 35.3043 40.6291 35.4115 35.3805C35.4676 32.4127 33.7214 30.3411 31.3849 28.9613ZM26.5486 23.3869C26.5486 25.0622 25.1947 26.4161 23.5194 26.4161H20.1497V20.3633H23.5198C25.3114 20.3633 26.5486 21.7172 26.5486 23.3869ZM27.4089 34.5254C27.3868 36.3429 25.1079 37.0606 23.3975 36.9638H20.1497V31.9805H23.5198C25.225 31.8734 27.307 32.4737 27.4089 34.5254Z" fill="white"/>
</svg>
