<svg width="293" height="56" viewBox="0 0 293 56" fill="none" xmlns="http://www.w3.org/2000/svg">
<g clip-path="url(#clip0_4576_15633)">
<path d="M217.316 28.1816C217.316 17.139 225.945 8.18164 236.596 8.18164C245.138 8.18164 252.377 13.9385 254.908 21.9191C257.439 13.9385 264.685 8.18164 273.22 8.18164C283.865 8.18164 292.5 17.139 292.5 28.1816C292.5 39.2242 283.872 48.1816 273.22 48.1816C264.678 48.1816 257.439 42.4248 254.908 34.4442C252.377 42.4248 245.131 48.1816 236.596 48.1816C225.945 48.1816 217.316 39.2312 217.316 28.1816Z" fill="#005BAA"/>
<path d="M248.631 31.9715C248.631 29.9002 248.223 28.4038 247.442 27.5032C246.547 26.4225 245.365 26.0623 242.473 25.9445C240.911 25.8822 239.755 25.8545 239.408 25.8545H233.945C232.095 25.8545 231.948 25.7921 231.634 25.7367C230.766 25.5289 230.332 24.9885 230.332 24.1156C230.332 23.0072 230.853 22.5846 232.296 22.4669C233.19 22.4045 235.795 22.3145 237.585 22.3145C241.545 22.3145 242.093 22.5569 242.093 24.2958H247.816C247.816 20.8458 247.181 19.4672 245.245 18.719C243.769 18.151 242.24 18.0332 236.603 18.0332C232.877 18.0332 231.254 18.0956 229.377 18.3657C225.798 18.8437 224.549 20.4648 224.549 24.4551C224.549 27.6072 225.357 29.1382 227.38 29.8517C228.362 30.2119 230.038 30.3574 232.843 30.3574H238.159C240.557 30.3574 240.704 30.3851 241.051 30.4198C242.24 30.5375 242.814 31.1056 242.814 32.1309C242.814 33.8974 242.093 34.0775 235.187 34.0775C233.711 34.0775 232.069 33.9875 231.514 33.8697C230.646 33.6619 230.446 33.3017 230.386 31.7984H224.636C224.609 32.2487 224.609 32.7544 224.609 32.9691C224.609 35.8164 225.537 37.2573 227.701 37.8254C229.117 38.2133 231.08 38.3311 235.448 38.3311C239.582 38.3311 241.224 38.2687 243.542 38.0332C247.242 37.6453 248.631 35.9965 248.631 31.9785" fill="white"/>
<path d="M273.22 22.4659L269.113 30.4396H277.38L273.22 22.4659ZM281.341 38.1777L279.431 34.61H267.002L265.153 38.1777H258.501L269.34 18.1777H277.2L287.752 38.1777H281.334H281.341Z" fill="white"/>
<path d="M169.353 10.9597C169.447 10.8628 169.533 10.8281 169.62 10.8281C169.76 10.8281 169.854 10.9528 169.854 11.1122C169.854 11.2091 169.807 11.3061 169.727 11.3962C166.261 15.8645 163.743 21.0879 163.743 28.3342C163.743 35.5805 166.268 40.7 169.727 45.1614C169.814 45.2514 169.854 45.3623 169.854 45.4454C169.854 45.6047 169.76 45.7363 169.62 45.7363C169.54 45.7363 169.447 45.6948 169.353 45.5978L154.587 30.7866C153.853 30.1354 153.379 29.3733 153.379 28.2788C153.379 27.1842 153.853 26.4222 154.587 25.7779L169.353 10.9597Z" fill="#ED1C24"/>
<path d="M180.699 9.71289C174.916 9.71289 172.659 18.2131 172.659 28.3412C172.659 38.4694 174.916 46.8587 180.699 46.8587C184.165 46.8587 187.124 44.7527 187.137 43.0208C187.137 42.6398 186.997 42.2796 186.69 41.9609C185.047 40.3121 184.406 38.6634 184.399 37.2155C184.392 34.4375 186.71 32.3731 188.847 32.3731C191.792 32.3731 193.522 34.7701 193.522 37.8736C193.522 40.8179 192.313 43.2702 191.004 45.2307C190.95 45.3069 190.93 45.397 190.93 45.4801C190.93 45.6325 191.017 45.7572 191.151 45.7572C191.231 45.7572 191.324 45.7157 191.425 45.6048L206.19 30.7936C206.925 30.1424 207.399 29.3804 207.399 28.2858C207.399 27.1912 206.925 26.4292 206.19 25.7849L191.425 10.9668C191.324 10.8629 191.231 10.8213 191.151 10.8213C191.017 10.8213 190.93 10.9529 190.93 11.1053C190.93 11.1885 190.95 11.2716 191.004 11.3547C192.313 13.3152 193.522 15.7676 193.522 18.7049C193.522 21.8085 191.785 24.2124 188.847 24.2124C186.716 24.2124 184.392 22.1479 184.399 19.37C184.406 17.9221 185.047 16.2733 186.69 14.6246C186.997 14.3059 187.137 13.9457 187.137 13.5646C187.13 11.8327 184.172 9.71982 180.699 9.71982" fill="#005BAA"/>
<path d="M3.75231 34.9146C5.72907 37.0206 8.40705 38.1637 11.1919 38.1637C16.1939 38.1567 19.7334 34.5336 19.7467 31.3815C19.7467 29.7051 18.725 28.4096 17.3359 28.4096C16.648 28.4096 16.0136 28.6521 15.5394 29.1093C15.0653 29.5665 14.7781 30.2454 14.7781 31.0629C14.7781 32.0397 15.2589 32.6354 15.6196 33.058C14.9651 34.2496 13.6628 35.2125 11.626 35.2194C9.88963 35.2194 8.3937 34.2911 7.3185 32.6493C6.23662 31.0144 5.58883 28.659 5.58883 25.8741C5.58883 23.0892 6.20991 20.7269 7.26507 19.0781C8.32024 17.4293 9.77609 16.501 11.5124 16.501C13.556 16.501 14.8582 17.4848 15.5127 18.6694C15.1521 19.0989 14.6646 19.6947 14.6646 20.6784C14.6646 21.4959 14.9584 22.1678 15.4259 22.6251C15.8934 23.0823 16.5345 23.3247 17.2223 23.3247C18.6114 23.3247 19.6332 22.0224 19.6332 20.3459C19.6132 17.2077 16.0804 13.5707 11.0784 13.5637C8.28684 13.5637 5.64226 14.8176 3.69221 16.9929C1.74883 19.1612 0.5 22.251 0.5 25.9157C0.5 29.7397 1.77555 32.8086 3.75231 34.9146ZM3.75231 34.9146C5.72907 37.0206 8.40705 38.1637 11.1919 38.1637C16.1939 38.1567 19.7334 34.5336 19.7467 31.3815C19.7467 29.7051 18.725 28.4096 17.3359 28.4096C16.648 28.4096 16.0136 28.6521 15.5394 29.1093C15.0653 29.5665 14.7781 30.2454 14.7781 31.0629C14.7781 32.0397 15.2589 32.6354 15.6196 33.058C14.9651 34.2496 13.6628 35.2125 11.626 35.2194C9.88963 35.2194 8.3937 34.2911 7.3185 32.6493C6.23662 31.0144 5.58883 28.659 5.58883 25.8741C5.58883 23.0892 6.20991 20.7269 7.26507 19.0781C8.32024 17.4293 9.77609 16.501 11.5124 16.501C13.556 16.501 14.8582 17.4848 15.5127 18.6694C15.1521 19.0989 14.6646 19.6947 14.6646 20.6784C14.6646 21.4959 14.9584 22.1678 15.4259 22.6251C15.8934 23.0823 16.5345 23.3247 17.2223 23.3247C18.6114 23.3247 19.6332 22.0224 19.6332 20.3459C19.6132 17.2077 16.0804 13.5707 11.0784 13.5637C8.28684 13.5637 5.64226 14.8176 3.69221 16.9929C1.74883 19.1612 0.5 22.251 0.5 25.9157C0.5 29.7397 1.77555 32.8086 3.75231 34.9146ZM3.75231 34.9146C1.77555 32.8086 0.5 29.7397 0.5 25.9157C0.5 22.251 1.74883 19.1612 3.69221 16.9929C5.63558 14.8246 8.28684 13.5637 11.0784 13.5637C16.0804 13.5707 19.6198 17.2077 19.6332 20.3459C19.6332 22.0293 18.6047 23.3247 17.2223 23.3247C16.5412 23.3247 15.9001 23.0823 15.4259 22.6251C14.9517 22.1678 14.6579 21.4959 14.6646 20.6784C14.6646 19.6947 15.1521 19.0989 15.5127 18.6694C14.8516 17.4848 13.5493 16.508 11.5124 16.501C9.77609 16.501 8.31356 17.4363 7.26507 19.0781C6.21659 20.72 5.58883 23.0823 5.58883 25.8741C5.58883 28.6659 6.23662 31.0144 7.3185 32.6493C8.3937 34.2911 9.88963 35.2125 11.626 35.2194C13.6628 35.2194 14.9718 34.2496 15.6196 33.058C15.2589 32.6424 14.7781 32.0397 14.7781 31.0629C14.7781 30.2454 15.0653 29.5665 15.5394 29.1093C16.0136 28.6521 16.6547 28.4096 17.3359 28.4096C18.725 28.4096 19.7467 29.7051 19.7467 31.3815C19.7334 34.5336 16.1939 38.1567 11.1919 38.1637C8.40705 38.1637 5.72907 37.0206 3.75231 34.9146ZM75.9042 26.7678C76.2314 26.7608 76.3182 26.6846 76.3783 26.5738C76.4451 26.4629 76.4585 26.2343 76.4585 25.9572C76.4251 24.35 75.223 22.8606 73.3597 22.8606C71.0157 22.8606 70.0674 24.8003 69.9204 26.7678H75.9042ZM29.3768 29.5734C27.5803 29.5942 26.3716 30.4671 26.3649 32.199C26.3716 33.8339 27.4401 34.9354 29.1163 34.9493C30.1982 34.9493 31.3068 34.3258 32.008 33.4252V31.0282C32.008 30.7026 31.801 30.3424 31.3602 30.0584C30.9128 29.7743 30.2449 29.5734 29.3768 29.5734ZM97.8088 28.5966C97.8155 33.2381 99.7656 35.2333 101.669 35.2402C103.853 35.2402 105.429 33.2381 105.442 29.331C105.442 27.2873 105.008 25.6593 104.3 24.5509C103.586 23.4425 102.617 22.8537 101.495 22.8537C99.2313 22.8537 97.8222 24.9804 97.8088 28.5897M41.037 37.4224C40.3358 37.2215 39.8817 36.8197 39.8817 36.217C39.8817 35.9815 39.9484 35.7321 40.0753 35.455L40.1154 35.3649L40.2089 35.3441C40.4827 35.2887 40.9235 35.1502 41.3242 34.8315C41.7382 34.4713 41.9052 33.9725 41.9052 32.5662V25.5C41.8718 24.3085 41.6047 23.8928 40.6497 23.8651C40.436 23.8651 40.1822 23.8928 39.895 23.9482L39.7481 23.9759L39.6947 23.8374C39.5878 23.5672 39.5411 23.3109 39.5411 23.0684C39.5678 21.6621 41.057 20.9416 42.0655 20.616C42.4595 20.4913 42.8268 20.4221 43.1674 20.4221C44.5431 20.4221 45.2844 21.4196 45.5982 22.7013C46.4998 21.2049 47.9223 20.2142 49.318 20.2073C50.6203 20.2073 51.9559 21.0941 51.9559 22.7913C51.9559 23.9967 51.1345 25.2575 49.7521 25.2645C48.7437 25.2645 47.8622 24.5717 47.6685 23.5464C46.8871 23.8097 45.7852 24.8211 45.7719 28.2988V32.5592C45.7719 33.9586 45.9722 34.4574 46.3729 34.8176C46.7469 35.1294 47.5617 35.2818 47.8488 35.3372L47.9423 35.358L47.9824 35.4481C48.1093 35.7459 48.1894 36.0092 48.1894 36.2655C48.1894 36.8405 47.782 37.2284 47.1142 37.4224C46.4464 37.6302 45.4647 37.7065 44.1357 37.7065C42.8067 37.7065 41.7516 37.6233 41.037 37.4086M54.6473 37.4086C55.3619 37.6233 56.3903 37.7065 57.746 37.7065C59.1017 37.7065 60.0567 37.6302 60.7312 37.4224C61.399 37.2284 61.8131 36.8336 61.8064 36.2655C61.8064 36.0092 61.7329 35.739 61.606 35.4481L61.566 35.358L61.4725 35.3372C61.1786 35.2818 60.3772 35.1294 59.9966 34.8176C59.5892 34.4574 59.3955 33.9586 59.3955 32.5592V28.2988C59.4022 24.8211 60.5108 23.8166 61.2921 23.5464C61.4791 24.5717 62.3673 25.2645 63.3758 25.2645C64.7515 25.2645 65.5729 23.9967 65.5729 22.7913C65.5729 21.0941 64.2306 20.2073 62.935 20.2073C61.5392 20.2073 60.1101 21.2049 59.2152 22.7013C58.8947 21.4127 58.16 20.4151 56.7843 20.4151C56.4371 20.4151 56.0698 20.4775 55.6757 20.6091C54.6673 20.9347 53.1781 21.6552 53.1514 23.0615C53.1514 23.304 53.1981 23.5603 53.305 23.8305L53.3584 23.969L53.4986 23.9413C53.7858 23.8859 54.0396 23.8582 54.2599 23.8582C55.2083 23.8859 55.4821 24.3015 55.5155 25.4931V32.5592C55.5155 33.9586 55.3418 34.4574 54.9344 34.8246C54.5338 35.1432 54.093 35.2818 53.8192 35.3372L53.7257 35.358L53.6856 35.4481C53.5654 35.7252 53.4986 35.9746 53.4919 36.2101C53.4919 36.8128 53.9394 37.2146 54.6406 37.4155M83.4506 37.4155C84.1652 37.6302 85.2003 37.7134 86.5627 37.7134C87.925 37.7134 89.0336 37.6302 89.8016 37.4016C90.5563 37.1938 91.0571 36.792 91.0571 36.1547C91.0571 35.933 90.997 35.7044 90.8902 35.455L90.8501 35.3649L90.7633 35.3511C90.4628 35.2956 89.441 35.1294 89.0804 34.8315C88.673 34.4713 88.4526 33.9655 88.4459 32.5731V23.3594C88.9535 23.3663 89.6347 23.4217 90.3158 23.4217C90.6097 23.4217 90.9369 23.4217 91.2441 23.3871C92.0522 23.3109 92.6866 22.6112 92.6866 21.6829C92.6866 21.3989 92.6265 21.101 92.5063 20.7892L92.4596 20.6784H88.3324V18.0043C88.3324 17.0483 88.4459 16.2032 88.7798 15.6282C89.1138 15.0532 89.648 14.7068 90.6164 14.6999C91.2174 14.6999 91.8452 14.8731 92.1657 15.1709C91.9587 15.5035 91.8118 15.9538 91.8118 16.3971C91.8184 17.6025 92.8269 18.5516 93.9288 18.5585C95.3913 18.5585 96.0992 17.2562 96.0992 16.2101C96.0858 13.7924 93.4747 12.296 90.3559 12.2891C87.8783 12.2891 86.2488 13.3213 85.3138 14.8315C84.7061 15.7806 84.2587 17.1938 84.2587 19.6739V20.6992H83.2102C82.3687 20.6992 81.6942 21.3019 81.6942 22.2094C81.6942 22.4865 81.7543 22.7775 81.8745 23.0823L81.9213 23.1931L84.3254 23.2832V32.5662C84.3254 33.9655 84.1585 34.4643 83.7444 34.8315C83.3437 35.1502 82.903 35.2887 82.6225 35.3441L82.5357 35.3649L82.4956 35.4481C82.3754 35.7182 82.3086 35.9746 82.3086 36.2032C82.3086 36.8059 82.7627 37.2077 83.4706 37.4086M132.576 37.4086C131.875 37.2077 131.42 36.8059 131.42 36.2032C131.42 35.9676 131.487 35.7182 131.614 35.4411L131.648 35.358L131.734 35.3372C132.001 35.2818 132.456 35.1432 132.843 34.8176C133.264 34.4574 133.424 33.9655 133.424 32.5592V25.4931C133.391 24.3015 133.13 23.8859 132.175 23.8582C131.961 23.8582 131.708 23.8859 131.42 23.9413L131.274 23.969L131.22 23.8305C131.12 23.5603 131.073 23.3109 131.073 23.0753C131.1 21.6621 132.589 20.9347 133.591 20.6091C133.998 20.4844 134.352 20.4151 134.72 20.4151C136.075 20.4151 136.817 21.4266 137.13 22.7359C138.019 21.2187 139.441 20.2142 140.844 20.2073C142.159 20.2073 143.481 21.101 143.488 22.7913C143.488 23.9967 142.667 25.2506 141.304 25.2645C140.289 25.2645 139.401 24.5717 139.201 23.5464C138.426 23.8097 137.337 24.8142 137.324 28.2988V32.5592C137.324 33.9586 137.518 34.4574 137.898 34.8176C138.292 35.1294 139.1 35.2818 139.381 35.3372L139.468 35.358L139.508 35.4481C139.641 35.7459 139.722 36.0161 139.722 36.2724C139.722 36.8474 139.314 37.2354 138.653 37.4224C137.985 37.6302 137.004 37.7065 135.681 37.7065C134.359 37.7065 133.297 37.6233 132.583 37.4086M101.515 37.9351C99.2246 37.9351 97.1477 37.0414 95.6317 35.4827C94.1224 33.9309 93.1875 31.7002 93.1875 29.0539C93.1942 23.8097 97.1677 20.2489 101.656 20.235C104.073 20.235 106.163 21.1287 107.646 22.6805C109.135 24.2323 110.003 26.4422 110.003 29.0539C110.003 31.6656 109.095 33.8963 107.572 35.4619C106.05 37.0275 103.926 37.9281 101.515 37.9281V37.9351ZM65.5796 29.3933C65.5796 26.7401 66.421 24.447 67.8969 22.826C69.3662 21.198 71.4698 20.242 73.9608 20.242C76.2314 20.242 77.9076 21.1148 79.0162 22.3618C80.1181 23.6088 80.6457 25.2298 80.6457 26.7193C80.6457 27.5991 80.4654 28.4235 80.0981 29.1162L80.0514 29.2132H69.9071C70.0741 32.2752 71.9573 34.4158 75.223 34.4228C77.2331 34.4228 78.7825 33.2797 79.3034 32.5939L79.4103 32.4484L79.5505 32.5592C79.8443 32.774 80.1582 33.1758 80.1515 33.9378C80.1382 35.7044 78.1481 37.9628 73.7271 37.9697C69.2393 37.9628 65.5929 34.2496 65.5796 29.4003M124.068 37.1938C123.767 36.7643 123.614 36.217 123.467 35.5935C123.3 35.7875 123.106 35.9953 122.812 36.2863C121.724 37.3393 120.308 37.9836 118.705 37.9836C116.962 37.9836 115.473 37.2908 114.525 36.127C113.069 34.3258 113.082 32.0397 113.082 28.7976V25.6663C113.049 24.3985 112.668 23.969 111.533 23.9344C111.386 23.9344 111.225 23.9413 111.052 23.9621L110.918 23.9759L110.865 23.8443C110.778 23.6157 110.738 23.3871 110.738 23.1723C110.771 21.6621 112.621 20.8516 113.703 20.616C114.084 20.5537 114.438 20.4913 114.785 20.4913C115.666 20.4913 116.321 20.7823 116.728 21.3157C117.142 21.8422 117.303 22.5696 117.303 23.4217L117.269 28.7629C117.269 30.7373 117.403 32.2129 117.824 33.1619C118.251 34.1041 118.892 34.5475 120.081 34.5544C121.37 34.5544 122.151 33.9725 122.645 33.1204C123.139 32.2614 123.32 31.0975 123.32 29.9891V25.6663C123.293 24.3985 122.906 23.969 121.777 23.9344C121.63 23.9344 121.47 23.9413 121.296 23.9621L121.156 23.9759L121.103 23.8443C121.016 23.6157 120.969 23.3871 120.969 23.1723C121.002 21.6621 122.846 20.8516 123.941 20.616C124.315 20.5537 124.675 20.4913 125.023 20.4913C125.904 20.4913 126.559 20.7823 126.973 21.3157C127.387 21.8422 127.547 22.5696 127.547 23.4148C127.547 24.0314 127.494 25.119 127.494 29.6635C127.494 31.5894 127.46 32.6077 127.46 32.9195C127.487 34.2288 127.914 34.8176 129.083 34.8454C129.21 34.8454 129.337 34.8384 129.477 34.8176L129.611 34.8038L129.664 34.9354C129.751 35.164 129.798 35.3857 129.798 35.5935C129.751 37.0691 127.901 37.658 126.833 37.8866C126.459 37.942 126.118 38.0043 125.817 38.0043H125.797C124.969 38.0043 124.408 37.6995 124.061 37.1938M21.9439 32.4761C21.9439 30.7996 22.6584 29.4349 23.8605 28.5135C25.0626 27.5921 26.7389 27.1072 28.6822 27.1072C29.8977 27.1072 31.1465 27.3358 32.0147 27.7307V25.8464C31.988 23.9413 31.2934 22.8675 29.2365 22.8398C28.8492 22.8398 27.9944 22.9437 27.2865 23.1931C27.3533 23.4702 27.3933 23.7473 27.3933 24.0175C27.3933 24.6548 27.1997 25.2368 26.8257 25.6663C26.4584 26.0958 25.9108 26.359 25.2496 26.359C24.0676 26.359 23.1727 25.3545 23.166 24.1076C23.1927 21.8007 25.8907 20.242 29.5037 20.242C32.3619 20.242 34.1584 20.9416 35.1201 22.2233C35.9949 23.3732 36.035 25.0497 36.035 27.419V33.5845C36.055 34.783 36.7028 35.1086 38.1386 35.3303L38.3056 35.3511L38.2922 35.5243C38.2121 37.1522 37.0568 37.8242 35.8146 37.9281C35.7078 37.9351 35.6009 37.942 35.4941 37.942C34.2719 37.942 33.0966 37.3254 32.5356 36.0577C31.7743 36.7297 30.0379 37.9766 27.8007 37.9836C24.4749 37.9836 21.9506 35.649 21.9439 32.4623" fill="#005BAA"/>
</g>
<defs>
<clipPath id="clip0_4576_15633">
<rect width="292" height="40" fill="white" transform="translate(0.5 8.18164)"/>
</clipPath>
</defs>
</svg>
