<svg width="85" height="57" viewBox="0 0 85 57" fill="none" xmlns="http://www.w3.org/2000/svg">
<path d="M13.5733 43.1096L16.2441 43.8052L9.21784 55.1817L6.54704 54.0359L10.1629 44.5418C8.01324 45.3757 5.73097 45.8192 3.42426 45.8514L2.39703 40.1222C5.39036 40.0867 8.31711 39.2377 10.8614 37.6668C10.8614 37.6668 12.7515 35.7026 11.3134 34.393C10.1157 33.2357 8.72544 32.2941 7.20447 31.6103C4.53367 30.0962 1 27.559 1 24.1624C1.15798 22.8751 1.61061 21.6412 2.32299 20.5557C3.03538 19.4701 3.98851 18.562 5.10892 17.9012C8.87895 15.5474 13.061 13.923 17.4357 13.1133L17.9287 18.8424C17.9287 18.8424 9.42328 19.4563 9.38219 22.5664C9.38219 22.5664 9.38219 24.2442 11.3956 25.5128C13.4089 26.7814 18.6273 28.7457 19.6134 31.3238C19.6134 31.3238 22.5307 37.5441 13.3678 42.9868" fill="#0551A0"/>
<path d="M48.7457 16.5103L56.9225 5.58398L47.7185 12.4999L48.7457 16.5103Z" fill="#EC2027"/>
<path d="M34.611 13.3996L21.0105 0.181641L26.0645 9.02093L34.611 13.3996Z" fill="#EC2027"/>
<path d="M18.2986 43.1503L23.7634 34.6793L15.9976 24.3668L25.4892 20.8065L18.6684 5.29688L36.008 16.0186L46.3214 10.3713L47.9649 20.3973L65.4278 20.1109L51.3343 32.5104L54.0051 46.2195L40.4867 42.9457L35.6382 53.0945L28.9407 40.4085L18.2986 43.1503Z" fill="#EC2027"/>
<path d="M14.9702 51.2521L27.9133 41.8809L29.8034 45.0728L14.9702 51.2521Z" fill="#EC2027"/>
<path d="M41.3081 44.3379L47.5948 45.7702L51.416 54.2412L41.3081 44.3379Z" fill="#EC2027"/>
<path d="M36.6243 18.1055C38.2265 17.851 39.8659 17.9632 41.4181 18.4338C42.9702 18.9043 44.3944 19.7208 45.5825 20.8213C46.7705 21.9217 47.6914 23.2772 48.275 24.7849C48.8587 26.2926 49.0899 27.9129 48.9511 29.5229C48.8544 31.0718 48.4438 32.5852 47.7442 33.9719C47.0446 35.3587 46.0704 36.59 44.8803 37.5918C43.6901 38.5935 42.3087 39.345 40.8193 39.8009C39.3298 40.2568 37.763 40.4078 36.2134 40.2446C36.2134 40.2446 25.407 40.2446 25.407 30.2595C25.407 30.2595 25.407 18.5556 36.7476 17.9827" fill="white"/>
<path d="M36.912 23.7112C36.912 23.7112 41.6373 23.4247 41.4318 29.3585C41.4318 29.3585 40.9798 34.4739 36.6655 34.3511C36.0559 34.2902 35.4647 34.1087 34.9264 33.8173C34.3882 33.5258 33.9139 33.1303 33.5311 32.6538C33.1484 32.1774 32.8651 31.6296 32.6977 31.0427C32.5304 30.4557 32.4824 29.8414 32.5566 29.2358C32.5566 29.2358 32.5566 24.0386 37.0353 23.7112" fill="#EC2027"/>
<path d="M58.1138 46.3416L65.7975 44.8684L62.798 29.6043L79.3569 42.5767L84 36.4793L70.5638 27.0261L78.9049 14.8721L72.7827 11.0254L62.4693 27.8037L59.7163 13.2761L51.9504 14.7084L58.1138 46.3416Z" fill="#0551A0"/>
</svg>
